<svg width="244px" height="43px" viewBox="0 0 244 43" version="1.1" xmlns="http://www.w3.org/2000/svg"
    xmlns:xlink="http://www.w3.org/1999/xlink">
    <defs>
        <path
            d="M47.6213788,0 C44.9462701,0.0143151412 42.2636546,1.33518515 40.7457879,4.20835327 L40.7457879,4.20835327 L32.7201616,19.4002968 L30.4810454,23.6387716 L32.5898442,17.4826644 L31.8995226,7.3248788 C31.5854398,2.70228113 27.80954,0.022069176 23.9907015,0 L23.9907015,0 L23.8997195,0 C21.2246108,0.0143151412 18.5419954,1.33518515 17.0241287,4.20835327 L17.0241287,4.20835327 L0.608347762,35.2823495 C0.200280334,36.0544724 0.0045040555,36.8814701 0,37.6971349 L0,37.6971349 L0,37.7535008 C0.00990892209,39.6398188 1.04223844,41.4584382 2.84115821,42.3957817 L2.84115821,42.3957817 C3.61795764,42.800781 4.44970656,42.9952283 5.27034547,43 L5.27034547,43 L5.3319009,43 C7.22990988,42.9892636 9.05945722,41.9642399 10.003207,40.1781278 L10.003207,40.1781278 L21.9605735,17.5435037 L24.161255,13.3772012 L22.0884887,19.4289271 L22.6707129,27.9947497 C23.2391247,36.3544939 34.4986629,38.7135099 38.418092,31.2937933 L38.418092,31.2937933 L45.6822327,17.5435037 L47.8832145,13.376903 L45.8104482,19.4289271 L46.0266428,22.6089761 C46.3506346,27.3789004 50.9925142,30.6576642 55.6352946,29.3967389 L55.6352946,29.3967389 L64.0167413,27.1203332 C66.842886,26.3526837 68.5072846,23.4553588 67.7343887,20.6483982 L67.7343887,20.6483982 C66.9614928,17.8417358 64.0440659,16.1886353 61.2182215,16.9562847 L61.2182215,16.9562847 L56.3655521,18.2741724 L56.3655521,18.2744706 L55.6211819,7.3248788 C55.3070991,2.70228113 51.5314995,0.022069176 47.7123607,0 L47.7123607,0 L47.6213788,0 Z"
            id="path-0t3m7wxybb-1"></path>
        <linearGradient x1="0%" y1="49.9999476%" x2="99.9998846%" y2="49.9999476%" id="linearGradient-0t3m7wxybb-3">
            <stop stop-color="#2160EF" offset="0%"></stop>
            <stop stop-color="#6BE887" offset="100%"></stop>
        </linearGradient>
        <polygon id="path-0t3m7wxybb-4" points="0 0 22.546401 0 22.546401 22.4756663 0 22.4756663"></polygon>
    </defs>
    <g id="Page-1" stroke="none" stroke-width="1" fill="none" fill-rule="evenodd">
        <g id="Group-18">
            <g id="Group-3">
                <mask id="mask-0t3m7wxybb-2" fill="white">
                    <use xlink:href="#path-0t3m7wxybb-1"></use>
                </mask>
                <g id="Clip-2"></g>
                <path
                    d="M47.6213788,0 C44.9462701,0.0143151412 42.2636546,1.33518515 40.7457879,4.20835327 L40.7457879,4.20835327 L32.7201616,19.4002968 L30.4810454,23.6387716 L32.5898442,17.4826644 L31.8995226,7.3248788 C31.5854398,2.70228113 27.80954,0.022069176 23.9907015,0 L23.9907015,0 L23.8997195,0 C21.2246108,0.0143151412 18.5419954,1.33518515 17.0241287,4.20835327 L17.0241287,4.20835327 L0.608347762,35.2823495 C0.200280334,36.0544724 0.0045040555,36.8814701 0,37.6971349 L0,37.6971349 L0,37.7535008 C0.00990892209,39.6398188 1.04223844,41.4584382 2.84115821,42.3957817 L2.84115821,42.3957817 C3.61795764,42.800781 4.44970656,42.9952283 5.27034547,43 L5.27034547,43 L5.3319009,43 C7.22990988,42.9892636 9.05945722,41.9642399 10.003207,40.1781278 L10.003207,40.1781278 L21.9605735,17.5435037 L24.161255,13.3772012 L22.0884887,19.4289271 L22.6707129,27.9947497 C23.2391247,36.3544939 34.4986629,38.7135099 38.418092,31.2937933 L38.418092,31.2937933 L45.6822327,17.5435037 L47.8832145,13.376903 L45.8104482,19.4289271 L46.0266428,22.6089761 C46.3506346,27.3789004 50.9925142,30.6576642 55.6352946,29.3967389 L55.6352946,29.3967389 L64.0167413,27.1203332 C66.842886,26.3526837 68.5072846,23.4553588 67.7343887,20.6483982 L67.7343887,20.6483982 C66.9614928,17.8417358 64.0440659,16.1886353 61.2182215,16.9562847 L61.2182215,16.9562847 L56.3655521,18.2741724 L56.3655521,18.2744706 L55.6211819,7.3248788 C55.3070991,2.70228113 51.5314995,0.022069176 47.7123607,0 L47.7123607,0 L47.6213788,0 Z"
                    id="Fill-1" fill="url(#linearGradient-0t3m7wxybb-3)" mask="url(#mask-0t3m7wxybb-2)"></path>
            </g>
            <g id="Group-17" transform="translate(83.402707, 3.714958)">
                <path
                    d="M25.1527478,6.61538462 C23.6907314,6.61538462 22.2911712,6.97892955 20.953767,7.70423004 C19.6157622,8.43042522 18.5471,9.43725682 17.74748,10.7244266 C17.0301341,9.38268034 16.0578587,8.36153361 14.8309539,7.66307401 C13.6034487,6.96461441 12.2726504,6.61538462 10.8388594,6.61538462 C8.3565243,6.61538462 6.32939905,7.67052981 4.75748369,9.77932905 L4.75748369,6.98519243 L0,6.98519243 L0,28.7623992 L4.75748369,28.7623992 L4.75748369,17.0931733 C4.75748369,15.3404632 5.19197491,13.8746524 6.06065708,12.6966355 C6.92933925,11.5192152 8.21809966,10.9299085 9.92873994,10.9299085 C11.3075815,10.9299085 12.3831499,11.4300438 13.1554453,12.4294196 C13.9274404,13.4299883 14.3138884,14.8063295 14.3138884,16.5590396 L14.3138884,28.7623992 L19.0713721,28.7623992 L19.0713721,16.4355715 C19.181271,14.8474855 19.6713122,13.5325801 20.5399944,12.4911536 C21.4086766,11.4506218 22.6292756,10.9299085 24.201191,10.9299085 C25.6076574,10.9299085 26.6970383,11.4300438 27.4693337,12.4294196 C28.2413288,13.4299883 28.6277767,14.8063295 28.6277767,16.5590396 L28.6277767,28.7623992 L33.3852604,28.7623992 L33.3852604,15.4084601 C33.3852604,12.6966355 32.5715277,10.5535396 30.9443626,8.97797937 C29.3168972,7.40331384 27.3867593,6.61538462 25.1527478,6.61538462"
                    id="Fill-4" fill="#000000"></path>
                <path
                    d="M52.891424,22.7634603 C51.5260946,24.1335386 49.8920233,24.8176831 47.9889097,24.8176831 C46.0581712,24.8176831 44.4240999,24.1398015 43.0866957,22.7840383 C41.7486909,21.4282752 41.0802891,19.7915774 41.0802891,17.8739449 C41.0802891,15.9569089 41.7486909,14.3133518 43.0866957,12.9432735 C44.4240999,11.5737916 46.0581712,10.8887525 47.9889097,10.8887525 C49.8920233,10.8887525 51.5260946,11.580651 52.891424,12.9635533 C54.256453,14.3473502 54.9392679,15.9837498 54.9392679,17.8739449 C54.9392679,19.76414 54.256453,21.3939785 52.891424,22.7634603 L52.891424,22.7634603 Z M54.6083699,9.90249891 C52.8707053,7.71138761 50.5261943,6.61538462 47.5754374,6.61538462 C44.5412053,6.61538462 41.9627837,7.71138761 39.8392717,9.90249891 C37.7151591,12.0945049 36.6537034,14.7511565 36.6537034,17.8739449 C36.6537034,20.9421568 37.7223656,23.5788269 39.8599903,25.7833586 C41.9970145,27.9887851 44.5688302,29.0913492 47.5754374,29.0913492 C50.5261943,29.0913492 52.8707053,28.0093631 54.6083699,25.8450927 L54.6083699,28.7623992 L59.3658536,28.7623992 L59.3658536,6.98519243 L54.6083699,6.98519243 L54.6083699,9.90249891 Z"
                    id="Fill-6" fill="#000000"></path>
                <polygon id="Fill-8" fill="#000000"
                    points="73.8864781 26.0504255 67.8465397 6.98534155 62.7578578 6.98534155 69.9976766 28.7622501 77.8167169 28.7622501 85.0147982 6.98534155 79.9264165 6.98534155">
                </polygon>
                <path
                    d="M92.0425961,13.5454638 C92.9425063,12.2857313 94.2075454,11.448892 95.8380135,11.0355423 C97.4675808,10.6224909 98.9752383,10.7563971 100.360085,11.4369627 C101.744632,12.1181249 102.751438,13.1279388 103.380205,14.4667027 L90.7934713,17.6571898 C90.7259105,16.1764674 91.1423855,14.8057926 92.0425961,13.5454638 M99.3872092,24.6811524 C97.7837655,25.0873446 96.2677004,24.9775951 94.8402151,24.3495183 C93.4121292,23.7223362 92.3632848,22.6597352 91.6939822,21.1608206 L108.770058,16.8319816 C108.760149,16.2408855 108.68388,15.6667887 108.540951,15.1093929 C108.377004,14.4723691 108.133184,13.8556251 107.809192,13.2591609 C106.693088,10.8002372 104.919691,8.9667062 102.489302,7.75946263 C100.058313,6.55221905 97.5063156,6.28709071 94.8345099,6.96437583 C91.8414149,7.72307831 89.5488507,9.43552707 87.9565169,12.1005292 C86.3641832,14.7661278 85.9570165,17.6112621 86.7347168,20.637125 C87.5055108,23.6364454 89.2119473,25.9319379 91.8558279,27.5233044 C94.4991079,29.1149692 97.3573815,29.5211613 100.430649,28.742179 C102.461377,28.2274304 104.287922,27.2203006 105.909082,25.7204913 C107.530842,24.2215767 108.55026,22.5141979 108.969437,20.5983549 L104.604407,20.5598829 C103.584689,22.6841902 101.845523,24.0578473 99.3872092,24.6811524"
                    id="Fill-10" fill="#000000"></path>
                <g id="Group-14" transform="translate(138.050892, 6.615474)">
                    <mask id="mask-0t3m7wxybb-5" fill="white">
                        <use xlink:href="#path-0t3m7wxybb-4"></use>
                    </mask>
                    <g id="Clip-13"></g>
                    <path
                        d="M16.09269,16.1069197 C14.768798,17.476998 13.1689575,18.1611424 11.293769,18.1611424 C9.39065544,18.1611424 7.77730276,17.476998 6.45341071,16.1069197 C5.12981894,14.7374378 4.46772278,13.1073011 4.46772278,11.217106 C4.46772278,9.32720917 5.12981894,7.70423004 6.45341071,6.34816865 C7.77730276,4.99240548 9.39065544,4.3145239 11.293769,4.3145239 C13.1968826,4.3145239 14.8030288,4.99240548 16.1134087,6.34816865 C17.4228877,7.70423004 18.0783779,9.32720917 18.0783779,11.217106 C18.0783779,13.1073011 17.4165821,14.7374378 16.09269,16.1069197 M19.2575397,3.30769231 C17.0649655,1.10316057 14.4102752,0 11.293769,0 C8.17696262,0 5.51566636,1.096003 3.30957998,3.28711429 C1.10259279,5.47882205 0,8.12235146 0,11.217106 C0,14.3130536 1.10259279,16.9634423 3.30957998,19.167974 C5.51566636,21.3734005 8.17696262,22.4756663 11.293769,22.4756663 C14.38235,22.4756663 17.0298338,21.3734005 19.236821,19.167974 C21.4429074,16.9634423 22.546401,14.3130536 22.546401,11.217106 C22.546401,8.14978881 21.4501139,5.51282051 19.2575397,3.30769231"
                        id="Fill-12" fill="#000000" mask="url(#mask-0t3m7wxybb-5)"></path>
                </g>
                <path
                    d="M127.770596,22.7634603 C126.405267,24.1335386 124.771195,24.8176831 122.868082,24.8176831 C120.909718,24.8176831 119.269041,24.1398015 117.945149,22.7840383 C116.621557,21.4282752 115.959461,19.7915774 115.959461,17.8739449 C115.959461,15.9569089 116.627863,14.3133518 117.965868,12.9432735 C119.303272,11.5737916 120.937343,10.8887525 122.868082,10.8887525 C124.771195,10.8887525 126.405267,11.580651 127.770596,12.9635533 C129.135625,14.3473502 129.81844,15.9837498 129.81844,17.8739449 C129.81844,19.76414 129.135625,21.3939785 127.770596,22.7634603 L127.770596,22.7634603 Z M129.487542,1.21380468 L129.487542,9.90249891 C127.749877,7.71138761 125.405366,6.61538462 122.454609,6.61538462 C119.420377,6.61538462 116.841956,7.71138761 114.718444,9.90249891 C112.594331,12.0945049 111.532875,14.7511565 111.532875,17.8739449 C111.532875,20.9421568 112.601538,23.5788269 114.739162,25.7833586 C116.876186,27.9887851 119.448002,29.0913492 122.454609,29.0913492 C125.405366,29.0913492 127.749877,28.0227835 129.487542,25.8862487 L129.487542,28.7623992 L134.245026,28.7623992 L134.245026,0 L134.244725,0 L129.487542,1.21380468 Z"
                    id="Fill-15" fill="#000000"></path>
            </g>
        </g>
    </g>
</svg>