<svg width="215" height="295" viewBox="0 0 215 295" fill="none" xmlns="http://www.w3.org/2000/svg">
<path d="M63.4 294V42.4L97.4 75.2H11.4V14H142.6V294H63.4Z" fill="#E6EAF1"/>
<path d="M84 273.58C75.04 273.58 68.04 270.78 63 265.18C58.24 259.86 54.88 253.28 52.92 245.44C50.96 237.6 49.98 230.18 49.98 223.18C49.98 197.98 52.78 171.52 58.38 143.8C64.26 116.08 71.96 90.6 81.48 67.36C80.36 68.2 77.84 69.74 73.92 71.98C70.28 74.22 66.64 76.32 63 78.28C59.36 79.96 56.84 80.8 55.44 80.8C52.92 80.8 50.68 80.1 48.72 78.7C47.04 77.3 46.2 75.2 46.2 72.4C46.2 70.72 47.04 69.32 48.72 68.2C56.84 63.44 65.24 58.68 73.92 53.92C82.88 49.16 90.44 42.86 96.6 35.02C100.24 29.98 103.6 24.8 106.68 19.48C109.76 13.88 113.26 8.55998 117.18 3.51998C117.74 2.11998 119 1.27999 120.96 0.99999C123.2 0.439981 124.88 0.159976 126 0.159976C127.96 0.159976 130.2 0.579979 132.72 1.41998C135.24 2.25999 136.5 3.93999 136.5 6.45999C136.22 7.01999 136.08 7.57999 136.08 8.14C136.08 8.69999 135.8 9.25998 135.24 9.81998C131.6 15.7 127.68 21.3 123.48 26.62C119.56 31.94 115.78 37.68 112.14 43.84C102.62 60.36 93.8 78.7 85.68 98.86C77.84 119.02 71.54 139.6 66.78 160.6C62.3 181.6 60.06 201.76 60.06 221.08C60.06 226.96 60.48 232.98 61.32 239.14C62.16 245.3 64.12 250.76 67.2 255.52C70.28 260.28 75.04 263.64 81.48 265.6C82.88 265.88 84.56 266.44 86.52 267.28C88.48 268.12 89.6 269.52 89.88 271.48C89.32 272.6 88.48 273.16 87.36 273.16C86.24 273.44 85.12 273.58 84 273.58Z" fill="#00C0A7"/>
</svg>
