<svg width="244" height="299" viewBox="0 0 244 299" fill="none" xmlns="http://www.w3.org/2000/svg">
<path d="M26 289V239.4L130.8 141.4C138.267 134.467 143.733 128.333 147.2 123C150.933 117.667 153.333 112.867 154.4 108.6C155.733 104.067 156.4 99.9333 156.4 96.2C156.4 87.1333 153.333 80.0667 147.2 75C141.333 69.9333 132.4 67.4 120.4 67.4C110.267 67.4 100.8 69.6667 92 74.2C83.2 78.7333 76 85.5333 70.4 94.6L11.6 61.8C22 44.2 37.0667 30.0667 56.8 19.4C76.5333 8.73332 100.133 3.39998 127.6 3.39998C149.2 3.39998 168.133 6.86665 184.4 13.8C200.667 20.7333 213.333 30.6 222.4 43.4C231.733 56.2 236.4 71.2666 236.4 88.6C236.4 97.6667 235.2 106.733 232.8 115.8C230.4 124.6 225.733 134.067 218.8 144.2C212.133 154.067 202.133 165.133 188.8 177.4L105.6 254.2L92.4 226.2H244V289H26Z" fill="#E6EAF1"/>
<path d="M180.4 298.6C176.933 298.6 175.2 296.867 175.2 293.4C175.733 290.733 176.933 288.2 178.8 285.8C180.933 283.667 182.933 281.133 184.8 278.2C186.667 275 187.6 271 187.6 266.2C187.6 259.267 184.8 254.6 179.2 252.2C173.6 249.533 167.867 248.2 162 248.2C146.8 248.2 130.267 249.933 112.4 253.4C94.8 256.867 77.4667 261.667 60.4 267.8C43.6 273.933 28.6667 281 15.6 289C14.5333 289.533 13.4667 290.067 12.4 290.6C11.3333 291.133 10.1333 291.4 8.8 291.4C6.13333 291.4 4.8 289.933 4.8 287C4.8 283.533 6 280.467 8.4 277.8C10.8 275.133 13.2 272.867 15.6 271C23.0667 264.867 32.6667 256.733 44.4 246.6C56.4 236.2 69.2 224.467 82.8 211.4C96.6667 198.333 110.267 184.733 123.6 170.6C137.2 156.2 149.6 141.933 160.8 127.8C172 113.667 180.933 100.333 187.6 87.8C194.533 75 198 63.8 198 54.2C198 45.1333 195.733 37.9333 191.2 32.6C186.933 27.2667 180.133 24.6 170.8 24.6C161.467 24.6 150.933 27 139.2 31.8C127.733 36.3333 116 42.2 104 49.4C92.2667 56.6 81.4667 64.3333 71.6 72.6C61.7333 80.6 53.8667 88.2 48 95.4C47.7333 96.2 46.9333 96.6 45.6 96.6C44 96.6 42.8 95.5333 42 93.4C41.4667 91.2667 41.2 89.6667 41.2 88.6L42.4 83.8C45.3333 77.6667 50.5333 71.2667 58 64.6C65.7333 57.9333 74.8 51.5333 85.2 45.4C95.6 39 106.4 33.2667 117.6 28.2C128.8 22.8667 139.467 18.7333 149.6 15.8C160 12.6 168.667 11 175.6 11C188.933 11 198.667 14.7333 204.8 22.2C211.2 29.6667 214.4 39.8 214.4 52.6C214.4 63 211.2 74.6 204.8 87.4C198.4 100.2 189.867 113.667 179.2 127.8C168.8 141.667 157.067 155.533 144 169.4C131.2 183.267 118.133 196.467 104.8 209C91.7333 221.533 79.3333 232.867 67.6 243C55.8667 252.867 45.8667 260.867 37.6 267C59.2 258.467 81.2 251.133 103.6 245C126.267 238.867 149.333 235.8 172.8 235.8C180.267 235.8 186.933 237.4 192.8 240.6C198.667 243.8 201.6 249.667 201.6 258.2C201.6 260.333 200.933 263.667 199.6 268.2C198.267 272.467 196.533 276.867 194.4 281.4C192.533 286.2 190.267 290.2 187.6 293.4C185.2 296.867 182.8 298.6 180.4 298.6Z" fill="#00C0A7"/>
</svg>
