<svg width="243" height="290" viewBox="0 0 243 290" fill="none" xmlns="http://www.w3.org/2000/svg">
<path d="M109.2 289.6C89.7333 289.6 70.2667 287.2 50.8 282.4C31.6 277.6 14.8 270.8 0.4 262L29.2 202.4C40.4 209.867 52.8 215.6 66.4 219.6C80.2667 223.6 93.7333 225.6 106.8 225.6C120.4 225.6 131.2 223.067 139.2 218C147.2 212.933 151.2 205.733 151.2 196.4C151.2 188.133 147.867 181.6 141.2 176.8C134.533 171.733 123.6 169.2 108.4 169.2H75.2V119.2L150.4 38L158 65.2H14.8V3.99998H217.2V53.6L142 134.8L103.2 112.8H124.8C159.733 112.8 186.133 120.667 204 136.4C222.133 151.867 231.2 171.867 231.2 196.4C231.2 212.4 226.8 227.467 218 241.6C209.467 255.733 196.267 267.333 178.4 276.4C160.533 285.2 137.467 289.6 109.2 289.6Z" fill="#E6EAF1"/>
<path d="M78 281.2C67.0667 281.2 56.4 279.6 46 276.4C35.6 273.467 27.0667 268.4 20.4 261.2C13.7333 253.733 10.4 243.6 10.4 230.8C10.4 228.4 10.8 224.533 11.6 219.2C12.4 213.6 13.7333 208.533 15.6 204C17.7333 199.2 20.4 196.8 23.6 196.8C24.1333 196.8 24.8 197.067 25.6 197.6C26.6667 197.867 27.2 198.4 27.2 199.2C27.2 203.467 26.2667 208 24.4 212.8C22.5333 217.6 21.6 222.533 21.6 227.6C21.6 238.533 24.5333 247.067 30.4 253.2C36.5333 259.333 44.1333 263.6 53.2 266C62.2667 268.133 71.4667 269.2 80.8 269.2C94.1333 269.2 108.133 267.467 122.8 264C137.733 260.267 151.733 254.667 164.8 247.2C178.133 239.733 188.933 230.267 197.2 218.8C205.467 207.333 209.6 193.733 209.6 178C209.6 163.867 206.667 153.067 200.8 145.6C194.933 137.867 187.067 132.533 177.2 129.6C167.333 126.667 156.267 125.2 144 125.2C137.867 125.2 131.6 125.333 125.2 125.6C118.8 125.6 112.533 126 106.4 126.8C103.733 127.067 100.533 127.733 96.8 128.8C93.3333 129.867 90.1333 130.4 87.2 130.4C82.9333 130.4 80.8 128 80.8 123.2C80.8 121.867 81.2 120.4 82 118.8C82.8 117.2 84.1333 116.4 86 116.4C92.6667 116.4 100.933 115.2 110.8 112.8C120.933 110.133 131.333 106.533 142 102C152.933 97.2 163.067 91.7333 172.4 85.6C182 79.2 189.733 72.4 195.6 65.2C201.733 58 204.8 50.5333 204.8 42.8C204.8 35.8667 202.8 30.2667 198.8 26C195.067 21.7333 190.267 18.5333 184.4 16.4C178.533 14.2667 172.533 13.2 166.4 13.2C155.467 13.2 145.067 15.6 135.2 20.4C125.333 25.2 116.4 30.6667 108.4 36.8C100.667 42.9333 94.1333 48.4 88.8 53.2C83.7333 58 80.2667 60.4 78.4 60.4C76.2667 60.4 75.2 59.2 75.2 56.8C75.2 51.7333 77.7333 46.6667 82.8 41.6C87.8667 36.2667 94.2667 31.2 102 26.4C110 21.3333 118.533 16.9333 127.6 13.2C136.667 9.19998 145.2 6.13332 153.2 3.99999C161.2 1.59999 167.733 0.399992 172.8 0.399992C180.533 0.399992 187.867 1.86666 194.8 4.79998C202 7.46665 207.867 11.7333 212.4 17.6C216.933 23.2 219.2 30.2667 219.2 38.8C219.2 49.2 216.267 58.4 210.4 66.4C204.533 74.4 197.067 81.4667 188 87.6C179.2 93.7333 169.867 99.0667 160 103.6C150.4 108.133 141.733 112 134 115.2H140C150.667 115.2 161.2 116 171.6 117.6C182 118.933 191.467 121.733 200 126C208.533 130 215.333 136 220.4 144C225.467 152 228 162.533 228 175.6C228 189.467 224.667 202 218 213.2C211.6 224.4 202.933 234.267 192 242.8C181.067 251.333 168.933 258.533 155.6 264.4C142.533 270 129.2 274.133 115.6 276.8C102.267 279.733 89.7333 281.2 78 281.2Z" fill="#00C0A7"/>
</svg>
