<svg width="307" height="304" viewBox="0 0 307 304" fill="none" xmlns="http://www.w3.org/2000/svg">
<path d="M10.8 229.4V177.8L136.4 2.99998H218.4L96.4 177.8L58.8 166.6H277.6V229.4H10.8ZM158.8 283V229.4L161.2 166.6V119H236V283H158.8Z" fill="#E6EAF1"/>
<path d="M192 303.6C183.467 303.6 176.8 300.933 172 295.6C167.467 290.533 164.267 284.267 162.4 276.8C160.533 269.333 159.6 262.267 159.6 255.6C159.6 241.467 160.933 227.333 163.6 213.2C166.267 198.8 169.2 184.8 172.4 171.2C160.933 167.733 149.6 163.867 138.4 159.6C127.2 155.333 115.733 151.333 104 147.6C92.5333 155.867 80.1333 162.8 66.8 168.4C53.7333 173.733 40.1333 177.467 26 179.6C23.3333 178.8 20.5333 177.6 17.6 176C14.9333 174.133 13.6 171.467 13.6 168C13.6 162.933 15.7333 158.267 20 154C24.2667 149.733 29.4667 146.133 35.6 143.2C42 140 48.4 137.6 54.8 136C61.2 134.133 66.5333 133.2 70.8 133.2C75.8667 133.2 81.6 133.6 88 134.4C94.4 134.933 100.133 136 105.2 137.6C118.8 128 130.667 117.067 140.8 104.8C150.933 92.2667 160.4 79.2 169.2 65.6C178 52 187.333 38.8 197.2 26C198.267 24.4 199.6 23.6 201.2 23.6C202.533 23.6 203.733 24.1333 204.8 25.2C205.867 26.2666 206.4 27.4666 206.4 28.8L205.2 31.6C200.933 39.6 195.067 48.6667 187.6 58.8C180.4 68.9333 172.4 79.2 163.6 89.6C154.8 100 146 109.733 137.2 118.8C128.4 127.6 120.533 134.8 113.6 140.4C123.733 144.133 133.867 147.867 144 151.6C154.4 155.067 164.8 158.4 175.2 161.6C178.133 149.867 181.867 136.933 186.4 122.8C191.2 108.4 196.667 94.4 202.8 80.8C209.2 67.2 216.133 55.7333 223.6 46.4C224.133 45.0667 225.2 44.2667 226.8 44C228.4 43.4667 229.867 43.2 231.2 43.2C233.067 43.2 235.333 43.6 238 44.4C240.667 45.2 242.133 46.8 242.4 49.2C241.867 50.8 241.333 51.8667 240.8 52.4C238.4 56.6667 235.6 60.8 232.4 64.8C229.2 68.5333 226.267 72.5333 223.6 76.8C215.333 90.4 207.867 104.533 201.2 119.2C194.8 133.867 189.2 148.933 184.4 164.4C191.867 166.267 199.6 167.6 207.6 168.4C215.6 169.2 223.333 169.6 230.8 169.6C234.533 169.6 239.6 169.333 246 168.8C252.4 168.267 258.133 166.8 263.2 164.4C268.267 161.733 270.8 157.733 270.8 152.4C270.8 148.933 270 146.133 268.4 144C267.067 141.867 266.4 139.733 266.4 137.6C266.4 136.267 266.8 135.067 267.6 134C268.4 132.933 269.467 132.4 270.8 132.4C274.533 133.2 277.6 135.867 280 140.4C282.667 144.933 284 149.067 284 152.8C284 159.733 281.2 165.467 275.6 170C270.267 174.267 263.867 177.467 256.4 179.6C249.2 181.467 242.8 182.4 237.2 182.4C227.867 182.4 218.533 181.6 209.2 180C199.867 178.4 190.667 176.267 181.6 173.6C178.133 186.667 175.6 199.867 174 213.2C172.667 226.267 172 239.467 172 252.8C172 261.867 173.467 270.267 176.4 278C179.333 285.733 185.467 291.067 194.8 294C196.133 294.267 197.333 294.667 198.4 295.2C199.733 296 200.4 297.2 200.4 298.8C200.4 301.2 199.333 302.533 197.2 302.8C195.333 303.333 193.6 303.6 192 303.6ZM32.4 166.4C39.8667 163.467 46.6667 161.333 52.8 160C59.2 158.4 65.6 156.533 72 154.4C78.6667 152.267 85.7333 149.067 93.2 144.8C88.4 144 83.4667 143.6 78.4 143.6C70.6667 143.6 64.1333 144.133 58.8 145.2C53.7333 146.267 49.2 148.4 45.2 151.6C41.2 154.8 36.9333 159.733 32.4 166.4Z" fill="#00C0A7"/>
</svg>
